<svg xmlns="http://www.w3.org/2000/svg" viewBox="0 0 128 128"><path fill="#E44D26" d="M19.04 113.88L9.04 1.66h109.93l-10.02 112.2-45.02 12.48z"/><path fill="#F16529" d="M64 116.8l36.38-10.09 8.56-95.87H64z"/><path fill="#EBEBEB" d="M64 52.45H45.79l-1.26-14.09H64V24.6H29.49l.33 3.7 3.38 37.92H64zm0 35.75l-.06.01-15.33-4.14-.98-10.97H33.82l1.92 21.6 28.2 7.83.06-.01z"/><path fill="#fff" d="M63.95 52.45v13.77H80.9l-1.6 17.85-15.35 4.14v14.32l28.22-7.82.2-2.33 3.24-36.23.33-3.7h-3.7zm0-27.85v13.76H97.2l.27-3.1.63-6.97.33-3.7z"/></svg>